<svg width="100" height="100" viewBox="0 0 100 100" fill="none" xmlns="http://www.w3.org/2000/svg">
<g clip-path="url(#clip0_1399_48)">
<path d="M60.4166 50C60.4166 52.7627 59.3191 55.4122 57.3656 57.3657C55.4121 59.3192 52.7626 60.4167 49.9999 60.4167C47.2372 60.4167 44.5877 59.3192 42.6342 57.3657C40.6807 55.4122 39.5833 52.7627 39.5833 50C39.5833 47.2374 40.6807 44.5879 42.6342 42.6343C44.5877 40.6808 47.2372 39.5834 49.9999 39.5834C52.7626 39.5834 55.4121 40.6808 57.3656 42.6343C59.3191 44.5879 60.4166 47.2374 60.4166 50ZM91.6666 50C91.6666 73 72.9999 91.6667 49.9999 91.6667C26.9999 91.6667 8.33325 73 8.33325 50C8.33325 27 26.9999 8.33337 49.9999 8.33337C72.9999 8.33337 91.6666 27 91.6666 50ZM83.3333 50H66.6666C66.6666 40.7917 59.2083 33.3334 49.9999 33.3334C40.7916 33.3334 33.3333 40.7917 33.3333 50H16.6666C16.6666 68.375 31.6249 83.3334 49.9999 83.3334C68.3749 83.3334 83.3333 68.375 83.3333 50Z" fill="#F44336"/>
</g>
<defs>
<clipPath id="clip0_1399_48">
<rect width="100" height="100" fill="white"/>
</clipPath>
</defs>
</svg>
